<?xml version="1.0"?><svg width="640" height="480" viewBox="0 0 640 480" xmlns="http://www.w3.org/2000/svg">
 <title>Oval Speech Bubble</title>
 <g>
  <title>Layer 1</title>
  <path d="m-272.512787,489.992676c-5.823151,0 -10.511139,5.784637 -10.511139,12.970062l0,77.685394c0,7.185425 4.687988,12.970093 10.511139,12.970093l33.32962,0l-4.498962,33.608276l25.763885,-33.608276l78.723969,0c5.823181,0 10.511108,-5.784668 10.511108,-12.970093l0,-77.685394c0,-7.185425 -4.687927,-12.970062 -10.511108,-12.970062l-133.318512,0z" id="path575" stroke="#000000" stroke-width="3.5" fill-rule="evenodd" fill-opacity="0.75" fill="none"/>
  <path d="m958.796387,-2.66856c0,-10.000278 -6.677917,-18.05106 -14.972839,-18.05106l-235.173523,0c-8.294983,0 -14.9729,8.050781 -14.9729,18.05106l0,27.354458l-38.797913,-7.726234l38.797913,44.245155l0,54.639435c0,10.00029 6.677917,18.051056 14.9729,18.051056l235.173523,0c8.294922,0 14.972839,-8.050766 14.972839,-18.051056l0,-118.512814z" id="path576" stroke-width="4.5" stroke="#000000" fill-rule="evenodd" fill-opacity="0.75" fill="none"/>
  <path d="m-337.989197,-101.085403c-10.344849,0.000015 -18.673065,10.810104 -18.673065,24.237892l0,46.165611c-24.875092,2.473396 -45.969818,-6.100914 -59.841248,-24.256836c5.369812,27.801056 28.63269,50.748222 59.841248,60.840897l0,76.368286c0,13.427811 8.328217,24.237915 18.673065,24.237915l293.312622,0c10.34491,0 18.673065,-10.81015 18.673065,-24.237915l0,-159.117958c0,-13.427773 -8.328156,-24.237892 -18.673065,-24.237892l-293.312622,0z" id="path587" stroke-width="4.5" stroke="#000000" fill-rule="evenodd" fill-opacity="0.75" fill="none"/>
  <path d="m672.343994,494.527222c0,9.044983 7.116211,16.32666 15.955627,16.32666l33.835938,0c1.628235,22.924561 -2.867737,35.492798 -19.413513,52.321899c25.192017,-5.870239 38.001099,-25.034851 40.051147,-52.321899l194.978943,0c8.839417,0 15.955627,-7.281677 15.955627,-16.32666l0,-117.786682c0,-9.044983 -7.116211,-16.32666 -15.955627,-16.32666l-249.452515,0c-8.839417,0 -15.955627,7.281677 -15.955627,16.32666l0,117.786682z" id="path588" stroke-width="4.5" stroke="#000000" fill-rule="evenodd" fill-opacity="0.75" fill="none"/>
  <path d="m334.406372,48.312923c-156.339035,0 -283.210365,87.429829 -283.210442,195.169926c0,58.488556 37.437271,110.964905 96.636833,146.747314c-34.634308,40.088867 -84.382576,68.561584 -141.289927,78.014191c10.940924,0.911499 22.091736,1.412292 33.440573,1.412292c70.906879,0 134.786457,-18.395599 179.597843,-47.77243c35.111755,10.758026 73.942825,16.790955 114.825119,16.790955c156.339142,0 283.230225,-87.452454 283.230225,-195.192322c0,-107.740036 -126.891083,-195.169926 -283.230225,-195.169926z" id="path595" stroke-width="4.5" stroke="#000000" fill-rule="evenodd" fill-opacity="0.75" fill="none"/>
 </g>
</svg>